<?xml version="1.0" encoding="utf-8"?>
<!-- Generator: Adobe Illustrator 16.0.0, SVG Export Plug-In . SVG Version: 6.00 Build 0)  -->
<!DOCTYPE svg PUBLIC "-//W3C//DTD SVG 1.1 Basic//EN" "http://www.w3.org/Graphics/SVG/1.1/DTD/svg11-basic.dtd">
<svg version="1.1" baseProfile="basic" id="Layer_1"
	 xmlns="http://www.w3.org/2000/svg" xmlns:xlink="http://www.w3.org/1999/xlink" x="0px" y="0px" width="130px" height="43.333px"
	 viewBox="0 0 130 43.333" xml:space="preserve">
<path fill="#193051" d="M130,26c0,9.573-7.76,17.333-17.333,17.333H17.333C7.76,43.333,0,35.573,0,26v-8.667C0,7.76,7.76,0,17.333,0
	h95.334C122.24,0,130,7.76,130,17.333V26z"/>
<g>
	<path fill="#FFFFFF" d="M34.541,24.503h1.016c0.717,0,1.075,0.249,1.075,0.745c0,0.344-0.127,0.613-0.381,0.808
		s-0.604,0.292-1.05,0.292h-1.404l-0.355,0.872c-0.863,2.116-2.125,3.174-3.783,3.174c-0.869,0-1.593-0.268-2.171-0.804
		c-0.579-0.536-0.868-1.208-0.868-2.015c0-0.524,0.14-1.017,0.419-1.477c0.279-0.46,0.662-0.825,1.147-1.096
		c0.598-0.333,1.401-0.5,2.412-0.5h1.819l0.263-0.66c-0.355,0.215-0.691,0.322-1.008,0.322c-0.604,0-1.093-0.208-1.468-0.626
		c-0.376-0.417-0.563-0.962-0.563-1.633c0-1.083,0.381-2.06,1.143-2.928c0.762-0.869,1.617-1.304,2.564-1.304
		c0.694,0,1.214,0.226,1.558,0.677c0.266-0.451,0.641-0.677,1.126-0.677c0.236,0,0.438,0.078,0.604,0.233
		c0.167,0.155,0.25,0.343,0.25,0.563c0,0.175-0.073,0.443-0.22,0.804L34.541,24.503z M31.664,26.349h-1.465
		c-0.508,0-0.901,0.107-1.181,0.322c-0.279,0.214-0.419,0.516-0.419,0.905c0,0.265,0.097,0.491,0.288,0.677s0.429,0.279,0.711,0.279
		c0.406,0,0.762-0.161,1.066-0.482S31.303,27.161,31.664,26.349z M33.441,21.964l0.686-1.676c0.056-0.141,0.084-0.256,0.084-0.347
		c0-0.169-0.074-0.311-0.224-0.423s-0.338-0.169-0.563-0.169c-0.406,0-0.794,0.233-1.163,0.698c-0.37,0.466-0.555,0.958-0.555,1.477
		c0,0.592,0.276,0.889,0.829,0.889C33.015,22.413,33.317,22.264,33.441,21.964z"/>
	<path fill="#FFFFFF" d="M39.138,21.787c0,0.423,0.318,0.635,0.956,0.635h2.514c0.711,0,1.066,0.251,1.066,0.753
		c0,0.344-0.126,0.612-0.377,0.804s-0.602,0.288-1.054,0.288h-2.395c-0.892,0-1.57-0.22-2.036-0.66
		c-0.465-0.44-0.698-1.083-0.698-1.93c0-1.089,0.368-2.028,1.104-2.818s1.612-1.185,2.628-1.185c0.739,0,1.333,0.193,1.782,0.58
		c0.448,0.386,0.673,0.896,0.673,1.527c0,0.762-0.311,1.326-0.932,1.693c-0.344,0.209-0.857,0.313-1.54,0.313H39.138z
		 M39.544,20.247h0.931c0.604,0,0.897-0.133,0.88-0.398c-0.017-0.299-0.211-0.449-0.584-0.449
		C40.252,19.4,39.843,19.682,39.544,20.247z"/>
	<path fill="#FFFFFF" d="M47.913,17.673c0.818,0,1.491,0.26,2.019,0.779c0.528,0.519,0.792,1.179,0.792,1.98
		c0,0.604-0.139,1.203-0.415,1.798c-0.276,0.596-0.635,1.071-1.075,1.426c-0.293,0.231-0.597,0.391-0.909,0.478
		c-0.313,0.088-0.752,0.131-1.316,0.131c-0.92,0-1.54-0.11-1.862-0.33c-0.756-0.519-1.134-1.287-1.134-2.302
		c0-1.072,0.387-2,1.159-2.784C45.944,18.066,46.858,17.673,47.913,17.673z M47.71,19.476c-0.417,0-0.798,0.206-1.143,0.618
		c-0.344,0.412-0.516,0.866-0.516,1.362c0,0.655,0.366,0.982,1.1,0.982c0.429,0,0.759-0.132,0.99-0.398
		c0.384-0.434,0.576-0.931,0.576-1.489c0-0.322-0.094-0.581-0.279-0.779C48.252,19.575,48.01,19.476,47.71,19.476z"/>
	<path fill="#FFFFFF" d="M57.444,22.421h1.016c0.716,0,1.074,0.251,1.074,0.753c0,0.344-0.127,0.612-0.381,0.804
		s-0.604,0.288-1.049,0.288h-1.77c-0.344,0-0.633-0.104-0.867-0.313c-0.234-0.209-0.352-0.471-0.352-0.787
		c0-0.192,0.079-0.479,0.237-0.863l0.745-1.845c0.079-0.192,0.121-0.347,0.127-0.465c0.005-0.136-0.05-0.251-0.165-0.347
		c-0.116-0.096-0.264-0.144-0.444-0.144c-0.581,0-1.05,0.438-1.405,1.312l-0.999,2.455c-0.299,0.745-0.744,1.117-1.337,1.117
		c-0.242,0-0.448-0.074-0.618-0.22c-0.169-0.146-0.254-0.327-0.254-0.542c0-0.158,0.046-0.347,0.136-0.567l0.093-0.229l1.71-4.215
		c0.22-0.547,0.596-0.821,1.126-0.821c0.435,0,0.744,0.192,0.931,0.576c0.604-0.463,1.18-0.694,1.727-0.694
		c0.53,0,0.968,0.152,1.312,0.457c0.345,0.305,0.517,0.691,0.517,1.16c0,0.26-0.063,0.544-0.187,0.855L57.444,22.421z"/>
	<path fill="#FFFFFF" d="M60.668,19.933h1.389h0.16c0.536,0,0.805,0.24,0.805,0.72c0,0.485-0.269,0.728-0.805,0.728h-0.16h-1.389
		h-0.16c-0.237,0-0.431-0.066-0.58-0.199c-0.149-0.132-0.225-0.309-0.225-0.529c0-0.214,0.073-0.388,0.221-0.521
		c0.146-0.133,0.341-0.199,0.584-0.199H60.668z"/>
	<path fill="#FFFFFF" d="M69.343,21.118l1.989-2.59l0.161-0.203c0.333-0.435,0.699-0.652,1.1-0.652c0.254,0,0.463,0.083,0.627,0.25
		c0.163,0.167,0.245,0.376,0.245,0.63c0,0.265-0.172,0.615-0.517,1.049l-3.174,3.995c-0.417,0.524-0.849,0.787-1.295,0.787
		c-0.366,0-0.677-0.138-0.931-0.415c-0.254-0.276-0.381-0.615-0.381-1.016c0-0.102,0.009-0.206,0.025-0.313l0.279-1.523l-1.727,2.48
		c-0.361,0.524-0.762,0.787-1.202,0.787c-0.378,0-0.688-0.147-0.931-0.44c-0.242-0.293-0.364-0.671-0.364-1.134
		c0-0.068,0.003-0.124,0.009-0.169l0.237-3.546c0.033-0.457,0.153-0.808,0.359-1.054c0.206-0.245,0.486-0.368,0.842-0.368
		c0.53,0,0.796,0.291,0.796,0.872c0,0.096-0.006,0.203-0.017,0.321l-0.237,2.37l1.888-2.7c0.4-0.575,0.866-0.863,1.396-0.863
		c0.327,0,0.587,0.093,0.778,0.279c0.191,0.187,0.288,0.438,0.288,0.753c0,0.13-0.003,0.226-0.009,0.288L69.343,21.118z"/>
	<path fill="#FFFFFF" d="M76.943,17.673c0.818,0,1.491,0.26,2.019,0.779c0.528,0.519,0.792,1.179,0.792,1.98
		c0,0.604-0.139,1.203-0.415,1.798c-0.276,0.596-0.635,1.071-1.075,1.426c-0.293,0.231-0.597,0.391-0.909,0.478
		c-0.313,0.088-0.752,0.131-1.316,0.131c-0.92,0-1.54-0.11-1.862-0.33c-0.756-0.519-1.134-1.287-1.134-2.302
		c0-1.072,0.387-2,1.159-2.784C74.975,18.066,75.889,17.673,76.943,17.673z M76.74,19.476c-0.417,0-0.798,0.206-1.143,0.618
		c-0.344,0.412-0.516,0.866-0.516,1.362c0,0.655,0.366,0.982,1.1,0.982c0.429,0,0.759-0.132,0.99-0.398
		c0.384-0.434,0.576-0.931,0.576-1.489c0-0.322-0.094-0.581-0.279-0.779C77.282,19.575,77.04,19.476,76.74,19.476z"/>
	<path fill="#FFFFFF" d="M84.12,17.673c0.818,0,1.491,0.26,2.019,0.779c0.528,0.519,0.792,1.179,0.792,1.98
		c0,0.604-0.139,1.203-0.415,1.798c-0.276,0.596-0.635,1.071-1.075,1.426c-0.293,0.231-0.597,0.391-0.909,0.478
		c-0.313,0.088-0.752,0.131-1.316,0.131c-0.92,0-1.54-0.11-1.862-0.33c-0.756-0.519-1.134-1.287-1.134-2.302
		c0-1.072,0.387-2,1.159-2.784C82.151,18.066,83.065,17.673,84.12,17.673z M83.917,19.476c-0.417,0-0.798,0.206-1.143,0.618
		c-0.344,0.412-0.516,0.866-0.516,1.362c0,0.655,0.366,0.982,1.1,0.982c0.429,0,0.759-0.132,0.99-0.398
		c0.384-0.434,0.576-0.931,0.576-1.489c0-0.322-0.094-0.581-0.279-0.779C84.459,19.575,84.217,19.476,83.917,19.476z"/>
	<path fill="#FFFFFF" d="M93.651,22.421h1.016c0.716,0,1.074,0.251,1.074,0.753c0,0.344-0.127,0.612-0.381,0.804
		s-0.604,0.288-1.049,0.288h-1.77c-0.344,0-0.633-0.104-0.867-0.313c-0.234-0.209-0.352-0.471-0.352-0.787
		c0-0.192,0.079-0.479,0.237-0.863l0.745-1.845c0.079-0.192,0.121-0.347,0.127-0.465c0.005-0.136-0.05-0.251-0.165-0.347
		c-0.116-0.096-0.264-0.144-0.444-0.144c-0.581,0-1.05,0.438-1.405,1.312l-0.999,2.455c-0.299,0.745-0.744,1.117-1.337,1.117
		c-0.242,0-0.448-0.074-0.618-0.22c-0.169-0.146-0.254-0.327-0.254-0.542c0-0.158,0.046-0.347,0.136-0.567l0.093-0.229l1.71-4.215
		c0.22-0.547,0.596-0.821,1.126-0.821c0.435,0,0.744,0.192,0.931,0.576c0.604-0.463,1.18-0.694,1.727-0.694
		c0.53,0,0.968,0.152,1.312,0.457c0.345,0.305,0.517,0.691,0.517,1.16c0,0.26-0.063,0.544-0.187,0.855L93.651,22.421z"/>
	<path fill="#FFFFFF" d="M101.039,24.503h1.016c0.717,0,1.075,0.249,1.075,0.745c0,0.344-0.127,0.613-0.381,0.808
		s-0.604,0.292-1.05,0.292h-1.404l-0.355,0.872c-0.863,2.116-2.125,3.174-3.783,3.174c-0.869,0-1.593-0.268-2.171-0.804
		c-0.579-0.536-0.868-1.208-0.868-2.015c0-0.524,0.14-1.017,0.419-1.477c0.279-0.46,0.662-0.825,1.147-1.096
		c0.598-0.333,1.401-0.5,2.412-0.5h1.819l0.263-0.66c-0.355,0.215-0.691,0.322-1.008,0.322c-0.604,0-1.093-0.208-1.468-0.626
		c-0.376-0.417-0.563-0.962-0.563-1.633c0-1.083,0.381-2.06,1.143-2.928c0.762-0.869,1.617-1.304,2.564-1.304
		c0.694,0,1.214,0.226,1.558,0.677c0.266-0.451,0.641-0.677,1.126-0.677c0.236,0,0.438,0.078,0.604,0.233
		c0.167,0.155,0.25,0.343,0.25,0.563c0,0.175-0.073,0.443-0.22,0.804L101.039,24.503z M98.162,26.349h-1.465
		c-0.508,0-0.901,0.107-1.181,0.322c-0.279,0.214-0.419,0.516-0.419,0.905c0,0.265,0.097,0.491,0.288,0.677s0.429,0.279,0.711,0.279
		c0.406,0,0.762-0.161,1.066-0.482S97.801,27.161,98.162,26.349z M99.939,21.964l0.686-1.676c0.056-0.141,0.084-0.256,0.084-0.347
		c0-0.169-0.074-0.311-0.224-0.423s-0.338-0.169-0.563-0.169c-0.406,0-0.794,0.233-1.163,0.698c-0.37,0.466-0.555,0.958-0.555,1.477
		c0,0.592,0.276,0.889,0.829,0.889C99.513,22.413,99.815,22.264,99.939,21.964z"/>
</g>
</svg>
