<?xml version="1.0" encoding="utf-8"?>
<!-- Generator: Adobe Illustrator 16.0.0, SVG Export Plug-In . SVG Version: 6.00 Build 0)  -->
<!DOCTYPE svg PUBLIC "-//W3C//DTD SVG 1.1 Basic//EN" "http://www.w3.org/Graphics/SVG/1.1/DTD/svg11-basic.dtd">
<svg version="1.1" baseProfile="basic" id="Layer_1"
	 xmlns="http://www.w3.org/2000/svg" xmlns:xlink="http://www.w3.org/1999/xlink" x="0px" y="0px" width="150.75px"
	 height="66.605px" viewBox="0 0 150.75 66.605" xml:space="preserve">
<g>
	<path d="M55.713,20.601h1.611c1.23,0,1.846,0.435,1.846,1.304c0,0.586-0.217,1.047-0.652,1.384s-1.042,0.505-1.824,0.505h-2.285
		l-1.04,2.095l-0.425,0.864c-1.348,2.695-3.281,4.043-5.801,4.043c-1.514,0-2.783-0.461-3.809-1.384s-1.538-2.073-1.538-3.45
		c0-0.811,0.2-1.604,0.601-2.38s0.928-1.394,1.582-1.853c1.064-0.752,2.71-1.128,4.937-1.128h3.047l3.325-8.203h-1.582
		c-1.24,0-1.86-0.435-1.86-1.304c0-0.596,0.217-1.06,0.652-1.392s1.047-0.498,1.838-0.498h3.501c1.182,0,1.772,0.493,1.772,1.479
		c0,0.381-0.103,0.82-0.308,1.318L55.713,20.601z M50.659,23.794h-2.051c-2.236,0-3.354,0.723-3.354,2.168
		c0,0.469,0.156,0.852,0.469,1.15s0.718,0.447,1.216,0.447c0.713,0,1.345-0.276,1.897-0.828S49.995,25.2,50.659,23.794z
		 M59.346,4.121c0.566,0,1.047,0.198,1.443,0.593s0.593,0.876,0.593,1.443S61.184,7.205,60.789,7.6s-0.876,0.593-1.443,0.593
		S58.298,7.996,57.903,7.6S57.31,6.724,57.31,6.157s0.198-1.047,0.593-1.443S58.779,4.121,59.346,4.121z"/>
	<path d="M63.696,15.708c0,0.732,0.552,1.099,1.655,1.099h4.351c1.23,0,1.846,0.435,1.846,1.304c0,0.596-0.217,1.06-0.652,1.392
		S69.854,20,69.072,20h-4.146c-1.543,0-2.717-0.381-3.523-1.143s-1.208-1.875-1.208-3.34c0-1.885,0.637-3.511,1.912-4.878
		s2.791-2.051,4.548-2.051c1.279,0,2.307,0.334,3.083,1.003s1.165,1.55,1.165,2.644c0,1.318-0.537,2.295-1.611,2.93
		c-0.596,0.361-1.484,0.542-2.666,0.542H63.696z M64.399,13.042h1.611c1.045,0,1.553-0.229,1.523-0.688
		c-0.029-0.518-0.366-0.776-1.011-0.776C65.625,11.577,64.917,12.065,64.399,13.042z"/>
	<path d="M78.887,8.589c1.416,0,2.581,0.449,3.494,1.348s1.37,2.041,1.37,3.428c0,1.045-0.239,2.083-0.718,3.113
		s-1.099,1.853-1.86,2.468c-0.508,0.4-1.033,0.676-1.575,0.828S78.296,20,77.319,20c-1.592,0-2.666-0.19-3.223-0.571
		c-1.309-0.898-1.963-2.227-1.963-3.984c0-1.855,0.669-3.462,2.007-4.819S77.061,8.589,78.887,8.589z M78.535,11.709
		c-0.723,0-1.382,0.356-1.978,1.069s-0.894,1.499-0.894,2.358c0,1.133,0.635,1.699,1.904,1.699c0.742,0,1.313-0.229,1.714-0.688
		c0.664-0.752,0.996-1.611,0.996-2.578c0-0.557-0.161-1.006-0.483-1.348S79.053,11.709,78.535,11.709z"/>
	<path d="M95.381,16.807h1.758c1.24,0,1.86,0.435,1.86,1.304c0,0.596-0.22,1.06-0.659,1.392S97.295,20,96.523,20h-3.062
		c-0.596,0-1.096-0.181-1.501-0.542s-0.608-0.815-0.608-1.362c0-0.332,0.137-0.83,0.41-1.494l1.289-3.193
		c0.137-0.332,0.21-0.601,0.22-0.806c0.01-0.234-0.085-0.435-0.286-0.601s-0.457-0.249-0.769-0.249
		c-1.006,0-1.816,0.757-2.432,2.271l-1.729,4.248c-0.518,1.289-1.289,1.934-2.314,1.934c-0.42,0-0.776-0.127-1.069-0.381
		s-0.439-0.566-0.439-0.938c0-0.273,0.078-0.601,0.234-0.981l0.161-0.396l2.959-7.295c0.381-0.947,1.03-1.421,1.948-1.421
		c0.752,0,1.289,0.332,1.611,0.996c1.045-0.801,2.041-1.201,2.988-1.201c0.918,0,1.675,0.264,2.271,0.791s0.894,1.196,0.894,2.007
		c0,0.449-0.107,0.942-0.322,1.479L95.381,16.807z"/>
	<path d="M108.169,20.41h1.758c1.24,0,1.86,0.43,1.86,1.289c0,0.596-0.22,1.062-0.659,1.399s-1.045,0.505-1.816,0.505h-2.432
		l-0.615,1.509c-1.494,3.662-3.677,5.493-6.548,5.493c-1.504,0-2.756-0.464-3.757-1.392s-1.501-2.09-1.501-3.486
		c0-0.908,0.242-1.76,0.725-2.556s1.145-1.428,1.985-1.897c1.035-0.576,2.427-0.864,4.175-0.864h3.149l0.454-1.143
		c-0.615,0.371-1.196,0.557-1.743,0.557c-1.045,0-1.892-0.361-2.542-1.084s-0.974-1.665-0.974-2.827
		c0-1.875,0.659-3.564,1.978-5.068s2.798-2.256,4.438-2.256c1.201,0,2.1,0.391,2.695,1.172c0.459-0.781,1.108-1.172,1.948-1.172
		c0.41,0,0.759,0.134,1.047,0.403s0.432,0.593,0.432,0.974c0,0.303-0.127,0.767-0.381,1.392L108.169,20.41z M103.188,23.604h-2.534
		c-0.879,0-1.56,0.186-2.043,0.557s-0.725,0.894-0.725,1.567c0,0.459,0.166,0.85,0.498,1.172s0.742,0.483,1.23,0.483
		c0.703,0,1.318-0.278,1.846-0.835S102.563,25.01,103.188,23.604z M106.265,16.016l1.187-2.9c0.098-0.244,0.146-0.444,0.146-0.601
		c0-0.293-0.129-0.537-0.388-0.732s-0.583-0.293-0.974-0.293c-0.703,0-1.375,0.403-2.014,1.208s-0.959,1.658-0.959,2.556
		c0,1.025,0.479,1.538,1.436,1.538C105.527,16.792,106.05,16.533,106.265,16.016z"/>
	<path d="M22.505,56.41h1.758c1.24,0,1.86,0.43,1.86,1.289c0,0.596-0.22,1.062-0.659,1.399s-1.045,0.505-1.816,0.505h-2.432
		l-0.615,1.509c-1.494,3.662-3.677,5.493-6.548,5.493c-1.504,0-2.756-0.464-3.757-1.392s-1.501-2.09-1.501-3.486
		c0-0.908,0.242-1.76,0.725-2.556s1.145-1.428,1.985-1.897c1.035-0.576,2.427-0.864,4.175-0.864h3.149l0.454-1.143
		c-0.615,0.371-1.196,0.557-1.743,0.557c-1.045,0-1.892-0.361-2.542-1.084s-0.974-1.665-0.974-2.827
		c0-1.875,0.659-3.564,1.978-5.068s2.798-2.256,4.438-2.256c1.201,0,2.1,0.391,2.695,1.172c0.459-0.781,1.108-1.172,1.948-1.172
		c0.41,0,0.759,0.134,1.047,0.403s0.432,0.593,0.432,0.974c0,0.303-0.127,0.767-0.381,1.392L22.505,56.41z M17.524,59.604H14.99
		c-0.879,0-1.56,0.186-2.043,0.557s-0.725,0.894-0.725,1.567c0,0.459,0.166,0.85,0.498,1.172s0.742,0.483,1.23,0.483
		c0.703,0,1.318-0.278,1.846-0.835S16.899,61.01,17.524,59.604z M20.601,52.016l1.187-2.9c0.098-0.244,0.146-0.444,0.146-0.601
		c0-0.293-0.129-0.537-0.388-0.732s-0.583-0.293-0.974-0.293c-0.703,0-1.375,0.403-2.014,1.208s-0.959,1.658-0.959,2.556
		c0,1.025,0.479,1.538,1.436,1.538C19.863,52.792,20.386,52.533,20.601,52.016z"/>
	<path d="M30.459,51.708c0,0.732,0.552,1.099,1.655,1.099h4.351c1.23,0,1.846,0.435,1.846,1.304c0,0.596-0.217,1.06-0.652,1.392
		S36.616,56,35.835,56h-4.146c-1.543,0-2.717-0.381-3.523-1.143s-1.208-1.875-1.208-3.34c0-1.885,0.637-3.511,1.912-4.878
		s2.791-2.051,4.548-2.051c1.279,0,2.307,0.334,3.083,1.003s1.165,1.55,1.165,2.644c0,1.318-0.537,2.295-1.611,2.93
		c-0.596,0.361-1.484,0.542-2.666,0.542H30.459z M31.162,49.042h1.611c1.045,0,1.553-0.229,1.523-0.688
		c-0.029-0.518-0.366-0.776-1.011-0.776C32.388,47.577,31.68,48.065,31.162,49.042z"/>
	<path d="M45.649,44.589c1.416,0,2.581,0.449,3.494,1.348s1.37,2.041,1.37,3.428c0,1.045-0.239,2.083-0.718,3.113
		s-1.099,1.853-1.86,2.468c-0.508,0.4-1.033,0.676-1.575,0.828S45.059,56,44.082,56c-1.592,0-2.666-0.19-3.223-0.571
		c-1.309-0.898-1.963-2.227-1.963-3.984c0-1.855,0.669-3.462,2.007-4.819S43.823,44.589,45.649,44.589z M45.298,47.709
		c-0.723,0-1.382,0.356-1.978,1.069s-0.894,1.499-0.894,2.358c0,1.133,0.635,1.699,1.904,1.699c0.742,0,1.313-0.229,1.714-0.688
		c0.664-0.752,0.996-1.611,0.996-2.578c0-0.557-0.161-1.006-0.483-1.348S45.815,47.709,45.298,47.709z"/>
	<path d="M62.144,52.807h1.758c1.24,0,1.86,0.435,1.86,1.304c0,0.596-0.22,1.06-0.659,1.392S64.058,56,63.286,56h-3.062
		c-0.596,0-1.096-0.181-1.501-0.542s-0.608-0.815-0.608-1.362c0-0.332,0.137-0.83,0.41-1.494l1.289-3.193
		c0.137-0.332,0.21-0.601,0.22-0.806c0.01-0.234-0.085-0.435-0.286-0.601s-0.457-0.249-0.769-0.249
		c-1.006,0-1.816,0.757-2.432,2.271l-1.729,4.248c-0.518,1.289-1.289,1.934-2.314,1.934c-0.42,0-0.776-0.127-1.069-0.381
		s-0.439-0.566-0.439-0.938c0-0.273,0.078-0.601,0.234-0.981l0.161-0.396l2.959-7.295c0.381-0.947,1.03-1.421,1.948-1.421
		c0.752,0,1.289,0.332,1.611,0.996c1.045-0.801,2.041-1.201,2.988-1.201c0.918,0,1.675,0.264,2.271,0.791s0.894,1.196,0.894,2.007
		c0,0.449-0.107,0.942-0.322,1.479L62.144,52.807z"/>
	<path d="M67.725,48.5h2.402h0.278c0.928,0,1.392,0.415,1.392,1.245c0,0.84-0.464,1.26-1.392,1.26h-0.278h-2.402h-0.278
		c-0.41,0-0.745-0.115-1.003-0.344s-0.388-0.535-0.388-0.916c0-0.371,0.127-0.671,0.381-0.901s0.591-0.344,1.011-0.344H67.725z"/>
	<path d="M82.739,50.551l3.442-4.482l0.278-0.352c0.576-0.752,1.211-1.128,1.904-1.128c0.439,0,0.801,0.144,1.084,0.432
		s0.425,0.652,0.425,1.091c0,0.459-0.298,1.064-0.894,1.816l-5.493,6.914c-0.723,0.908-1.47,1.362-2.241,1.362
		c-0.635,0-1.172-0.239-1.611-0.718s-0.659-1.064-0.659-1.758c0-0.176,0.015-0.356,0.044-0.542l0.483-2.637l-2.988,4.292
		c-0.625,0.908-1.318,1.362-2.08,1.362c-0.654,0-1.191-0.254-1.611-0.762s-0.63-1.162-0.63-1.963c0-0.117,0.005-0.215,0.015-0.293
		l0.41-6.138c0.059-0.791,0.266-1.399,0.623-1.824s0.842-0.637,1.458-0.637c0.918,0,1.377,0.503,1.377,1.509
		c0,0.166-0.01,0.352-0.029,0.557l-0.41,4.102l3.267-4.673c0.693-0.996,1.499-1.494,2.417-1.494c0.566,0,1.016,0.161,1.348,0.483
		s0.498,0.757,0.498,1.304c0,0.225-0.005,0.391-0.015,0.498L82.739,50.551z"/>
	<path d="M95.894,44.589c1.416,0,2.581,0.449,3.494,1.348s1.37,2.041,1.37,3.428c0,1.045-0.239,2.083-0.718,3.113
		s-1.099,1.853-1.86,2.468c-0.508,0.4-1.033,0.676-1.575,0.828S95.303,56,94.326,56c-1.592,0-2.666-0.19-3.223-0.571
		c-1.309-0.898-1.963-2.227-1.963-3.984c0-1.855,0.669-3.462,2.007-4.819S94.067,44.589,95.894,44.589z M95.542,47.709
		c-0.723,0-1.382,0.356-1.978,1.069s-0.894,1.499-0.894,2.358c0,1.133,0.635,1.699,1.904,1.699c0.742,0,1.313-0.229,1.714-0.688
		c0.664-0.752,0.996-1.611,0.996-2.578c0-0.557-0.161-1.006-0.483-1.348S96.06,47.709,95.542,47.709z"/>
	<path d="M108.315,44.589c1.416,0,2.581,0.449,3.494,1.348s1.37,2.041,1.37,3.428c0,1.045-0.239,2.083-0.718,3.113
		s-1.099,1.853-1.86,2.468c-0.508,0.4-1.033,0.676-1.575,0.828S107.725,56,106.748,56c-1.592,0-2.666-0.19-3.223-0.571
		c-1.309-0.898-1.963-2.227-1.963-3.984c0-1.855,0.669-3.462,2.007-4.819S106.489,44.589,108.315,44.589z M107.964,47.709
		c-0.723,0-1.382,0.356-1.978,1.069s-0.894,1.499-0.894,2.358c0,1.133,0.635,1.699,1.904,1.699c0.742,0,1.313-0.229,1.714-0.688
		c0.664-0.752,0.996-1.611,0.996-2.578c0-0.557-0.161-1.006-0.483-1.348S108.481,47.709,107.964,47.709z"/>
	<path d="M124.81,52.807h1.758c1.24,0,1.86,0.435,1.86,1.304c0,0.596-0.22,1.06-0.659,1.392S126.724,56,125.952,56h-3.062
		c-0.596,0-1.096-0.181-1.501-0.542s-0.608-0.815-0.608-1.362c0-0.332,0.137-0.83,0.41-1.494l1.289-3.193
		c0.137-0.332,0.21-0.601,0.22-0.806c0.01-0.234-0.085-0.435-0.286-0.601s-0.457-0.249-0.769-0.249
		c-1.006,0-1.816,0.757-2.432,2.271l-1.729,4.248c-0.518,1.289-1.289,1.934-2.314,1.934c-0.42,0-0.776-0.127-1.069-0.381
		s-0.439-0.566-0.439-0.938c0-0.273,0.078-0.601,0.234-0.981l0.161-0.396l2.959-7.295c0.381-0.947,1.03-1.421,1.948-1.421
		c0.752,0,1.289,0.332,1.611,0.996c1.045-0.801,2.041-1.201,2.988-1.201c0.918,0,1.675,0.264,2.271,0.791s0.894,1.196,0.894,2.007
		c0,0.449-0.107,0.942-0.322,1.479L124.81,52.807z"/>
	<path d="M137.598,56.41h1.758c1.24,0,1.86,0.43,1.86,1.289c0,0.596-0.22,1.062-0.659,1.399s-1.045,0.505-1.816,0.505h-2.432
		l-0.615,1.509c-1.494,3.662-3.677,5.493-6.548,5.493c-1.504,0-2.756-0.464-3.757-1.392s-1.501-2.09-1.501-3.486
		c0-0.908,0.242-1.76,0.725-2.556s1.145-1.428,1.985-1.897c1.035-0.576,2.427-0.864,4.175-0.864h3.149l0.454-1.143
		c-0.615,0.371-1.196,0.557-1.743,0.557c-1.045,0-1.892-0.361-2.542-1.084s-0.974-1.665-0.974-2.827
		c0-1.875,0.659-3.564,1.978-5.068s2.798-2.256,4.438-2.256c1.201,0,2.1,0.391,2.695,1.172c0.459-0.781,1.108-1.172,1.948-1.172
		c0.41,0,0.759,0.134,1.047,0.403s0.432,0.593,0.432,0.974c0,0.303-0.127,0.767-0.381,1.392L137.598,56.41z M132.617,59.604h-2.534
		c-0.879,0-1.56,0.186-2.043,0.557s-0.725,0.894-0.725,1.567c0,0.459,0.166,0.85,0.498,1.172s0.742,0.483,1.23,0.483
		c0.703,0,1.318-0.278,1.846-0.835S131.992,61.01,132.617,59.604z M135.693,52.016l1.187-2.9c0.098-0.244,0.146-0.444,0.146-0.601
		c0-0.293-0.129-0.537-0.388-0.732s-0.583-0.293-0.974-0.293c-0.703,0-1.375,0.403-2.014,1.208s-0.959,1.658-0.959,2.556
		c0,1.025,0.479,1.538,1.436,1.538C134.956,52.792,135.479,52.533,135.693,52.016z"/>
</g>
</svg>
